<?xml version="1.0" encoding="UTF-8" standalone="no"?>
<svg
   xmlns:dc="http://purl.org/dc/elements/1.1/"
   xmlns:cc="http://creativecommons.org/ns#"
   xmlns:rdf="http://www.w3.org/1999/02/22-rdf-syntax-ns#"
   xmlns:svg="http://www.w3.org/2000/svg"
   xmlns="http://www.w3.org/2000/svg"
   xmlns:xlink="http://www.w3.org/1999/xlink"
   xmlns:sodipodi="http://sodipodi.sourceforge.net/DTD/sodipodi-0.dtd"
   xmlns:inkscape="http://www.inkscape.org/namespaces/inkscape"
   version="1.1"
   id="svg2"
   viewBox="0 0 63.999999 63.999999"
   height="64"
   width="64"
   inkscape:version="0.91 r13725"
   sodipodi:docname="logo.svg">
  <sodipodi:namedview
     pagecolor="#ffffff"
     bordercolor="#666666"
     borderopacity="1"
     objecttolerance="10"
     gridtolerance="10"
     guidetolerance="10"
     inkscape:pageopacity="0"
     inkscape:pageshadow="2"
     inkscape:window-width="1366"
     inkscape:window-height="742"
     id="namedview10"
     showgrid="false"
     inkscape:zoom="7.375"
     inkscape:cx="43.924342"
     inkscape:cy="24.660444"
     inkscape:window-x="0"
     inkscape:window-y="0"
     inkscape:window-maximized="1"
     inkscape:current-layer="g4185" />
  <defs
     id="defs4">
    <linearGradient
       id="a"
       y2="148.33623"
       x2="151.13584"
       y1="22.897128"
       x1="24.714632"
       gradientTransform="scale(0.99888681,1.0011144)"
       gradientUnits="userSpaceOnUse">
      <stop
         id="stop4145"
         offset="0%"
         stop-color="#387EB8" />
      <stop
         id="stop4147"
         offset="100%"
         stop-color="#366994" />
    </linearGradient>
    <linearGradient
       id="b"
       y2="231.90517"
       x2="238.2592"
       y1="103.26573"
       x1="102.48345"
       gradientTransform="scale(0.99888668,1.0011146)"
       gradientUnits="userSpaceOnUse">
      <stop
         id="stop4150"
         offset="0%"
         stop-color="#FFE052" />
      <stop
         id="stop4152"
         offset="100%"
         stop-color="#FFC331" />
    </linearGradient>
    <linearGradient
       id="linearGradient2795">
      <stop
         id="stop2797"
         offset="0"
         style="stop-color:#b8b8b8;stop-opacity:0.49803922;" />
      <stop
         id="stop2799"
         offset="1"
         style="stop-color:#7f7f7f;stop-opacity:0;" />
    </linearGradient>
    <linearGradient
       id="linearGradient2787">
      <stop
         id="stop2789"
         offset="0"
         style="stop-color:#7f7f7f;stop-opacity:0.5;" />
      <stop
         id="stop2791"
         offset="1"
         style="stop-color:#7f7f7f;stop-opacity:0;" />
    </linearGradient>
    <linearGradient
       id="linearGradient3676">
      <stop
         id="stop3678"
         offset="0"
         style="stop-color:#b2b2b2;stop-opacity:0.5;" />
      <stop
         id="stop3680"
         offset="1"
         style="stop-color:#b3b3b3;stop-opacity:0;" />
    </linearGradient>
    <linearGradient
       id="linearGradient3236">
      <stop
         id="stop3244"
         offset="0"
         style="stop-color:#f4f4f4;stop-opacity:1" />
      <stop
         id="stop3240"
         offset="1"
         style="stop-color:white;stop-opacity:1" />
    </linearGradient>
    <linearGradient
       id="linearGradient4671">
      <stop
         id="stop4673"
         offset="0"
         style="stop-color:#ffd43b;stop-opacity:1;" />
      <stop
         id="stop4675"
         offset="1"
         style="stop-color:#ffe873;stop-opacity:1" />
    </linearGradient>
    <linearGradient
       id="linearGradient4689">
      <stop
         id="stop4691"
         offset="0"
         style="stop-color:#5a9fd4;stop-opacity:1;" />
      <stop
         id="stop4693"
         offset="1"
         style="stop-color:#306998;stop-opacity:1;" />
    </linearGradient>
    <linearGradient
       gradientTransform="translate(100.2702,99.61116)"
       gradientUnits="userSpaceOnUse"
       xlink:href="#linearGradient4671"
       id="linearGradient2987"
       y2="144.75717"
       x2="-65.308502"
       y1="144.75717"
       x1="224.23996" />
    <linearGradient
       gradientTransform="translate(100.2702,99.61116)"
       gradientUnits="userSpaceOnUse"
       xlink:href="#linearGradient4689"
       id="linearGradient2990"
       y2="76.313133"
       x2="26.670298"
       y1="77.475983"
       x1="172.94208" />
    <linearGradient
       y2="144.75717"
       x2="-65.308502"
       y1="144.75717"
       x1="224.23996"
       gradientTransform="matrix(0.562541,0,0,0.567972,-11.5974,-7.60954)"
       gradientUnits="userSpaceOnUse"
       id="linearGradient2255"
       xlink:href="#linearGradient4671"
       inkscape:collect="always" />
    <linearGradient
       y2="76.313133"
       x2="26.670298"
       y1="76.176224"
       x1="172.94208"
       gradientTransform="matrix(0.562541,0,0,0.567972,-11.5974,-7.60954)"
       gradientUnits="userSpaceOnUse"
       id="linearGradient2258"
       xlink:href="#linearGradient4689"
       inkscape:collect="always" />
    <radialGradient
       gradientUnits="userSpaceOnUse"
       gradientTransform="matrix(1,0,0,0.177966,0,108.7434)"
       r="29.036913"
       fy="132.28575"
       fx="61.518883"
       cy="132.28575"
       cx="61.518883"
       id="radialGradient2801"
       xlink:href="#linearGradient2795"
       inkscape:collect="always" />
  </defs>
  <metadata
     id="metadata7">
    <rdf:RDF>
      <cc:Work
         rdf:about="">
        <dc:format>image/svg+xml</dc:format>
        <dc:type
           rdf:resource="http://purl.org/dc/dcmitype/StillImage" />
        <dc:title />
      </cc:Work>
    </rdf:RDF>
  </metadata>
  <g
     transform="translate(0,-988.3622)"
     id="layer1">
    <g
       id="g4185">
      <path
         style="fill:#00aad4;stroke:none;stroke-width:4.90184736"
         d="m 31.999999,991.45081 c 16.016918,0 28.911404,12.89449 28.911404,28.91139 0,16.0169 -12.894486,28.9114 -28.911404,28.9114 -16.016917,0 -28.9114034,-12.8945 -28.9114034,-28.9114 0,-16.0169 12.8944864,-28.91139 28.9114034,-28.91139 z"
         id="rect4410" />
      <g
         id="g4264"
         transform="matrix(0.74209476,0,0,0.74209476,-68.308249,258.0263)"
         style="fill:#ffffff">
        <path
           id="path1948"
           d="m 134.93453,1007.3646 c -1.62412,0.01 -3.17513,0.1461 -4.53985,0.3875 -4.02031,0.7103 -4.75024,2.1969 -4.75024,4.9385 l 0,3.6208 9.50047,0 0,1.207 -9.50047,0 -3.56544,0 c -2.7611,0 -5.1788,1.6595 -5.93503,4.8166 -0.8723,3.6188 -0.91099,5.877 0,9.6555 0.67533,2.8126 2.2881,4.8167 5.0492,4.8167 l 3.26648,0 0,-4.3405 c 0,-3.1358 2.71316,-5.9019 5.93503,-5.9019 l 9.4894,0 c 2.64151,0 4.75023,-2.1749 4.75023,-4.8277 l 0,-9.0465 c 0,-2.5747 -2.17203,-4.5088 -4.75023,-4.9385 -1.63204,-0.2716 -3.32542,-0.3951 -4.94955,-0.3875 z m -5.13778,2.9121 c 0.98133,0 1.78272,0.8145 1.78272,1.816 0,0.9979 -0.80139,1.8049 -1.78272,1.8049 -0.98486,0 -1.78273,-0.807 -1.78273,-1.8049 0,-1.0015 0.79787,-1.816 1.78273,-1.816 z"
           style="fill:#ffffff;fill-opacity:1"
           inkscape:connector-curvature="0" />
        <path
           id="path1950"
           d="m 145.8191,1017.5184 0,4.2187 c 0,3.2707 -2.77295,6.0236 -5.93502,6.0236 l -9.4894,0 c -2.59931,0 -4.75024,2.2247 -4.75024,4.8278 l 0,9.0464 c 0,2.5747 2.23887,4.0891 4.75024,4.8278 3.00731,0.8843 5.89117,1.0441 9.4894,0 2.39178,-0.6925 4.75023,-2.0862 4.75023,-4.8278 l 0,-3.6208 -9.4894,0 0,-1.2069 9.4894,0 4.75024,0 c 2.7611,0 3.79,-1.9259 4.75023,-4.8167 0.99189,-2.976 0.94968,-5.8378 0,-9.6555 -0.68236,-2.7487 -1.98562,-4.8166 -4.75023,-4.8166 l -3.56545,0 z m -5.33709,22.9096 c 0.98485,0 1.78272,0.807 1.78272,1.8049 0,1.0014 -0.79787,1.8159 -1.78272,1.8159 -0.98134,0 -1.78272,-0.8145 -1.78272,-1.8159 0,-0.9979 0.80138,-1.8049 1.78272,-1.8049 z"
           style="fill:#ffffff;fill-opacity:1"
           inkscape:connector-curvature="0" />
      </g>
    </g>
  </g>
</svg>
